<?xml version="1.0" encoding="UTF-8" standalone="no"?>
<!-- Created with Inkscape (http://www.inkscape.org/) -->

<svg
   xmlns:dc="http://purl.org/dc/elements/1.1/"
   xmlns:cc="http://creativecommons.org/ns#"
   xmlns:rdf="http://www.w3.org/1999/02/22-rdf-syntax-ns#"
   xmlns:svg="http://www.w3.org/2000/svg"
   xmlns="http://www.w3.org/2000/svg"
   xmlns:sodipodi="http://sodipodi.sourceforge.net/DTD/sodipodi-0.dtd"
   xmlns:inkscape="http://www.inkscape.org/namespaces/inkscape"
   id="svg3795"
   height="256"
   width="256"
   version="1.1"
   inkscape:version="0.48.4 r9939"
   sodipodi:docname="parcel-tracker-mono-dark.svg">
  <defs
     id="defs10" />
  <sodipodi:namedview
     pagecolor="#ffffff"
     bordercolor="#666666"
     borderopacity="1"
     objecttolerance="10"
     gridtolerance="10"
     guidetolerance="10"
     inkscape:pageopacity="0"
     inkscape:pageshadow="2"
     inkscape:window-width="1855"
     inkscape:window-height="1056"
     id="namedview8"
     showgrid="true"
     inkscape:zoom="3.4257812"
     inkscape:cx="70.932729"
     inkscape:cy="128"
     inkscape:window-x="65"
     inkscape:window-y="24"
     inkscape:window-maximized="1"
     inkscape:current-layer="layer3">
    <inkscape:grid
       type="xygrid"
       id="grid3808"
       empspacing="5"
       visible="true"
       enabled="true"
       snapvisiblegridlinesonly="true" />
    <sodipodi:guide
       position="0,0"
       orientation="0,256"
       id="guide3784" />
    <sodipodi:guide
       position="256,0"
       orientation="-256,0"
       id="guide3786" />
    <sodipodi:guide
       position="256,256"
       orientation="0,-256"
       id="guide3788" />
    <sodipodi:guide
       position="0,256"
       orientation="256,0"
       id="guide3790" />
    <sodipodi:guide
       position="0,0"
       orientation="0,256"
       id="guide3792" />
    <sodipodi:guide
       position="256,0"
       orientation="-256,0"
       id="guide3794" />
    <sodipodi:guide
       position="256,256"
       orientation="0,-256"
       id="guide3796" />
    <sodipodi:guide
       position="0,256"
       orientation="256,0"
       id="guide3798" />
  </sodipodi:namedview>
  <metadata
     id="metadata3800">
    <rdf:RDF>
      <cc:Work
         rdf:about="">
        <dc:format>image/svg+xml</dc:format>
        <dc:type
           rdf:resource="http://purl.org/dc/dcmitype/StillImage" />
        <dc:title></dc:title>
      </cc:Work>
    </rdf:RDF>
  </metadata>
  <g
     inkscape:groupmode="layer"
     id="layer3"
     inkscape:label="box"
     style="display:inline"
     transform="translate(0,232)">
    <path
       id="path4992"
       style="font-size:medium;font-style:normal;font-variant:normal;font-weight:normal;font-stretch:normal;text-indent:0;text-align:start;text-decoration:none;line-height:normal;letter-spacing:normal;word-spacing:normal;text-transform:none;direction:ltr;block-progression:tb;writing-mode:lr-tb;text-anchor:start;baseline-shift:baseline;color:#000000;fill:#19b6ee;fill-opacity:1;stroke:none;stroke-width:24.62199973999999969;marker:none;visibility:visible;display:inline;overflow:visible;enable-background:accumulate;font-family:Sans;-inkscape-font-specification:Sans"
       d="m 75,-101 c 20,25 20,25 43.24857,55.466331 C 140,-76 140,-76 160,-101 c -30,4.999998 -55,4.999998 -85,0 z m 42.625,-114.3125 a 17.50175,17.50175 0 0 0 -7.1875,1.84375 l -80,40 a 17.50175,17.50175 0 0 0 0,31.28125 l 70.3125,35.15625 0,24.21875 a 17.50175,17.50175 0 1 0 35,0 l 0,-35 a 17.50175,17.50175 0 0 0 -9.6875,-15.65625 l -48.71875,-24.34375 40.90625,-20.46875 62.5,31.25 0,78.40625 -62.5,31.25 -62.5,-31.25 0,-29.1875 a 17.50175,17.50175 0 1 0 -35,0 l 0,40 a 17.50175,17.50175 0 0 0 9.6875,15.625 l 80,40 a 17.50175,17.50175 0 0 0 15.625,0 l 80,-40 a 17.50175,17.50175 0 0 0 9.6875,-15.625 l 0,-100 a 17.50175,17.50175 0 0 0 -9.6875,-15.65625 l -80,-40 a 17.50175,17.50175 0 0 0 -8.4375,-1.84375 z" />
  </g>
</svg>
